<svg viewBox="0 0 25 25" fill="none" xmlns="http://www.w3.org/2000/svg">
<path id="Union" fill-rule="evenodd" clip-rule="evenodd" d="M12.5 25C19.4036 25 25 19.4036 25 12.5C25 5.59644 19.4036 0 12.5 0C5.59644 0 0 5.59644 0 12.5C0 19.4036 5.59644 25 12.5 25ZM12.5 23.125C6.63197 23.125 1.875 18.368 1.875 12.5C1.875 6.63197 6.63197 1.875 12.5 1.875C18.368 1.875 23.125 6.63197 23.125 12.5C23.125 18.368 18.368 23.125 12.5 23.125ZM12.5 19.4034C12.1389 19.4034 7.44444 15.3409 7.44444 11.6477C7.44444 7.95455 9.61111 6.47727 12.5 6.47727C15.3889 6.47727 17.5556 7.95455 17.5556 11.6477C17.5556 15.3409 12.8611 19.4034 12.5 19.4034ZM12.5 21.25C13.5833 21.25 19 16.0291 19 11.6477C19 9.43182 18.3152 7.92762 17.0962 6.78482C15.8772 5.64202 14.2239 5 12.5 5C10.7761 5 9.12279 5.64202 7.90381 6.78482C6.68482 7.92762 6 9.43182 6 11.6477C6 16.0291 11.4167 21.25 12.5 21.25ZM12.5 12.5C11.85 12.5 11.2 11.875 11.2 11.25C11.2 10.625 11.85 10 12.5 10C13.15 10 13.8 10.5596 13.8 11.25C13.8 11.9404 13.15 12.5 12.5 12.5ZM12.5 13.75C13.1896 13.75 13.8509 13.4866 14.3385 13.0178C14.8261 12.5489 15.1 11.913 15.1 11.25C15.1 10.587 14.8261 9.95107 14.3385 9.48223C13.8509 9.01339 13.1896 8.75 12.5 8.75C11.8104 8.75 11.1491 9.01339 10.6615 9.48223C10.1739 9.95107 9.9 10.587 9.9 11.25C9.9 11.913 10.1739 12.5489 10.6615 13.0178C11.1491 13.4866 11.8104 13.75 12.5 13.75Z" fill="#575757"/>
</svg>
