<svg width="80" height="80" viewBox="0 0 80 80" fill="none" xmlns="http://www.w3.org/2000/svg">
<g id="Group 1731">
<path id="Rectangle 2970" d="M10 10H78V78H10V10Z" fill="black"/>
<path id="Rectangle 2970 (Stroke)" fill-rule="evenodd" clip-rule="evenodd" d="M8 10C8 8.89543 8.89543 8 10 8H78C79.1046 8 80 8.89543 80 10V78C80 79.1046 79.1046 80 78 80H10C8.89543 80 8 79.1046 8 78V10ZM12 12V76H76V12H12Z" fill="black"/>
<path id="Rectangle 2969" d="M2 2H70V70H2V2Z" fill="#00FF75"/>
<path id="Rectangle 2969 (Stroke)" fill-rule="evenodd" clip-rule="evenodd" d="M0 2C0 0.89543 0.89543 0 2 0H70C71.1046 0 72 0.89543 72 2V70C72 71.1046 71.1046 72 70 72H2C0.89543 72 0 71.1046 0 70V2ZM4 4V68H68V4H4Z" fill="black"/>
<g id="Group 1">
<path id="Vector 2 (Stroke)" fill-rule="evenodd" clip-rule="evenodd" d="M48.3431 36.0001L35.1716 22.8285L40.8284 17.1716L59.6569 36.0001L40.8284 54.8285L35.1716 49.1716L48.3431 36.0001Z" fill="black"/>
<path id="Vector 1 (Stroke)" fill-rule="evenodd" clip-rule="evenodd" d="M12 40H54V32H12V40Z" fill="black"/>
</g>
</g>
</svg>
