<svg viewBox="0 0 20 20" fill="none" xmlns="http://www.w3.org/2000/svg">
<path d="M5.25 2.4C5.25 1.35066 6.10066 0.5 7.15 0.5H12.85C13.8993 0.5 14.75 1.35066 14.75 2.4V4.3H16.6402C16.6461 4.29995 16.6519 4.29995 16.6578 4.3H18.55C19.0747 4.3 19.5 4.72533 19.5 5.25C19.5 5.77467 19.0747 6.2 18.55 6.2H17.5346L16.7106 17.7354C16.6396 18.7296 15.8123 19.5 14.8154 19.5H5.18456C4.18775 19.5 3.36041 18.7297 3.28939 17.7354L2.46544 6.2H1.45C0.925329 6.2 0.5 5.77467 0.5 5.25C0.5 4.72533 0.925329 4.3 1.45 4.3H3.34216C3.34805 4.29995 3.35393 4.29995 3.35981 4.3H5.25V2.4ZM7.15 4.3H12.85V2.4H7.15V4.3ZM4.37028 6.2L5.18456 17.6H14.8154L15.6297 6.2H4.37028Z" fill="#575757"/>
</svg>
