<svg width="10" height="16" viewBox="0 0 10 16" fill="none" xmlns="http://www.w3.org/2000/svg">
<path id="Vector" d="M8.33333 5.2C8.33333 5.2 8.33333 5.6 9.16667 5.6C10 5.6 10 5.2 10 5.2C10 2.9304 7.70417 1.8952 5.83333 1.6568L5.83417 0.8C5.83417 0.8 5.83417 0 5.00084 0C4.16751 0 4.16667 0.8 4.16667 0.8V1.6568C2.29583 1.8952 0 2.9304 0 5.2C0 7.3648 2.22167 8.4904 4.16667 8.744V12.72C2.96 12.5192 1.66667 11.9008 1.66667 10.8C1.66667 10.8 1.66667 10.4 0.834173 10.4C0.00167847 10.4 0 10.8 0 10.8C0 12.8712 2.02083 14.0952 4.16667 14.3488L4.16751 15.2C4.16751 15.2 4.16751 16 5.00084 16C5.83417 16 5.83333 15.2 5.83333 15.2V14.344C7.70417 14.1056 10 13.0696 10 10.8C10 8.5304 7.70417 7.4952 5.83333 7.2568V3.28C6.94167 3.4712 8.33333 4.0328 8.33333 5.2ZM1.66667 5.2C1.66667 4.0328 3.05833 3.4712 4.16667 3.28V7.1192C3.02417 6.9168 1.66667 6.3176 1.66667 5.2ZM8.33333 10.8C8.33333 11.9672 6.94167 12.5288 5.83333 12.72V8.88C6.94167 9.0712 8.33333 9.6328 8.33333 10.8Z" fill="white"/>
</svg>
