<svg viewBox="0 0 20 20" fill="none" xmlns="http://www.w3.org/2000/svg">
<path d="M13.7929 0.792893C14.1834 0.402369 14.8166 0.402369 15.2071 0.792893L19.2071 4.79289C19.5976 5.18342 19.5976 5.81658 19.2071 6.20711L6.20711 19.2071C6.01957 19.3946 5.76522 19.5 5.5 19.5H1.5C0.947715 19.5 0.5 19.0523 0.5 18.5V14.5C0.5 14.2348 0.605357 13.9804 0.792893 13.7929L10.7927 3.7931L13.7929 0.792893ZM11.5 5.91421L2.5 14.9142V17.5H5.08579L14.0858 8.5L11.5 5.91421ZM15.5 7.08579L17.0858 5.5L14.5 2.91421L12.9142 4.5L15.5 7.08579Z" fill="#575757"/>
</svg>
