<svg width="30" height="30" viewBox="0 0 30 30" fill="none" xmlns="http://www.w3.org/2000/svg">
<g id="icons/notification">
<g id="Icon">
<path d="M15 5.65956C12.0552 3.02112 7.52657 3.11683 4.6967 5.9467C1.76777 8.87563 1.76777 13.6244 4.6967 16.5533L13.2322 25.0888C14.2085 26.0651 15.7915 26.0651 16.7678 25.0888L25.3033 16.5533C28.2322 13.6244 28.2322 8.87563 25.3033 5.9467C22.4734 3.11683 17.9448 3.02112 15 5.65956ZM13.5355 7.71447L14.1161 8.29505C14.6043 8.7832 15.3957 8.7832 15.8839 8.29505L16.4645 7.71447C18.4171 5.76184 21.5829 5.76184 23.5355 7.71447C25.4882 9.66709 25.4882 12.8329 23.5355 14.7855L15 23.3211L6.46447 14.7855C4.51184 12.8329 4.51184 9.66709 6.46447 7.71447C8.41709 5.76184 11.5829 5.76184 13.5355 7.71447Z" fill="currentColor"/>
</g>
</g>
</svg>
