<svg width="30" height="30" viewBox="0 0 30 30" fill="none" xmlns="http://www.w3.org/2000/svg">
<g id="icons/notification">
<g id="Icon">
<path d="M12.6827 4.06015C13.0541 3.1452 13.9517 2.5 15 2.5C16.0483 2.5 16.9459 3.1452 17.3173 4.06015C21.0252 5.0759 23.75 8.46974 23.75 12.5V18.3715L26.0401 21.8066C26.2958 22.1902 26.3196 22.6834 26.1021 23.0898C25.8846 23.4963 25.461 23.75 25 23.75H19.3307C19.0274 25.8702 17.204 27.5 15 27.5C12.796 27.5 10.9726 25.8702 10.6693 23.75H5C4.53901 23.75 4.11543 23.4963 3.89791 23.0898C3.68038 22.6834 3.70423 22.1902 3.95994 21.8066L6.25 18.3715V12.5C6.25 8.46974 8.97479 5.0759 12.6827 4.06015ZM13.2317 23.75C13.4891 24.4782 14.1836 25 15 25C15.8164 25 16.5109 24.4782 16.7683 23.75H13.2317ZM15 6.25C11.5482 6.25 8.75 9.04822 8.75 12.5V18.75C8.75 18.9968 8.67695 19.238 8.54006 19.4434L7.33565 21.25H22.6644L21.4599 19.4434C21.323 19.238 21.25 18.9968 21.25 18.75V12.5C21.25 9.04822 18.4518 6.25 15 6.25Z" fill="currentColor"/>
</g>
<circle id="Ellipse 134" cx="21.25" cy="7.5" r="5" fill="#D95252"/>
</g>
</svg>
