<svg width="14" height="16" viewBox="0 0 14 16" fill="none" xmlns="http://www.w3.org/2000/svg">
<path id="Vector" d="M3.28632 16C3.79714 16 4.21509 15.6 4.21509 15.1111V13.3333H7.00141C7.51223 13.3333 7.93018 12.9333 7.93018 12.4444C7.93018 11.9556 7.51223 11.5556 7.00141 11.5556H4.21509V9.77778H8.39457C11.3852 9.77778 13.7722 7.32444 13.475 4.40889C13.2242 1.86667 10.8465 0 8.17166 0H3.28632C2.77549 0 2.35755 0.4 2.35755 0.888889V8H1.42877C0.917948 8 0.5 8.4 0.5 8.88889C0.5 9.37778 0.917948 9.77778 1.42877 9.77778H2.35755V11.5556H1.42877C0.917948 11.5556 0.5 11.9556 0.5 12.4444C0.5 12.9333 0.917948 13.3333 1.42877 13.3333H2.35755V15.1111C2.35755 15.6 2.77549 16 3.28632 16ZM8.39457 8H4.21509V1.77778H8.39457C10.1871 1.77778 11.6453 3.17333 11.6453 4.88889C11.6453 6.60444 10.1871 8 8.39457 8Z" fill="white"/>
</svg>
