<svg viewBox="0 0 21 16" fill="none" xmlns="http://www.w3.org/2000/svg">
<path fill-rule="evenodd" clip-rule="evenodd" d="M1.8749 6.8879C7.24359 4.62993 10.8236 3.14134 12.6148 2.42212C17.7292 0.36862 18.7919 0.0119045 19.4846 0.00012559C19.6369 -0.00246506 19.9776 0.0339819 20.1982 0.206816C20.3845 0.352754 20.4358 0.549895 20.4603 0.68826C20.4848 0.826626 20.5154 1.14183 20.4911 1.38811C20.214 4.1992 19.0147 11.021 18.4046 14.1694C18.1465 15.5017 17.6382 15.9484 17.1461 15.9921C16.0766 16.0871 15.2645 15.3098 14.2287 14.6543C12.6078 13.6287 11.6921 12.9902 10.1188 11.9893C8.30053 10.8327 9.47923 10.1969 10.5154 9.15799C10.7866 8.88609 15.4987 4.74867 15.5899 4.37335C15.6013 4.32641 15.6119 4.15143 15.5042 4.05904C15.3965 3.96664 15.2376 3.99824 15.1229 4.02337C14.9604 4.05898 12.371 5.71112 7.35486 8.97978C6.61988 9.46697 5.95416 9.70435 5.3577 9.69191C4.70015 9.6782 3.43528 9.33301 2.49498 9.03795C1.34166 8.67605 0.425027 8.48471 0.504845 7.87009C0.546419 7.54996 1.0031 7.22256 1.8749 6.8879Z" fill="black"/>
</svg>
