<svg width="30" height="30" viewBox="0 0 30 30" fill="none" xmlns="http://www.w3.org/2000/svg">
<g id="icons/user">
<g id="Vector">
<path d="M15 3C8.37258 3 3 8.37258 3 15C3 21.6274 8.37258 27 15 27C21.6274 27 27 21.6274 27 15C27 8.37258 21.6274 3 15 3ZM0 15C0 6.71573 6.71573 0 15 0C23.2843 0 30 6.71573 30 15C30 23.2843 23.2843 30 15 30C6.71573 30 0 23.2843 0 15Z" fill="currentColor"/>
<path fill-rule="evenodd" clip-rule="evenodd" d="M15 8.85C13.2603 8.85 11.85 10.2603 11.85 12C11.85 13.7397 13.2603 15.15 15 15.15C16.7397 15.15 18.15 13.7397 18.15 12C18.15 10.2603 16.7397 8.85 15 8.85ZM9.15 12C9.15 8.76913 11.7691 6.15 15 6.15C18.2309 6.15 20.85 8.76913 20.85 12C20.85 15.2309 18.2309 17.85 15 17.85C11.7691 17.85 9.15 15.2309 9.15 12Z" fill="currentColor"/>
<path fill-rule="evenodd" clip-rule="evenodd" d="M7.25312 25.2522C7.25312 25.2522 7.25344 25.2514 6 24.75C4.74656 24.2486 4.74691 24.2477 4.74691 24.2477L4.74819 24.2445L4.75041 24.2391L4.75658 24.224L4.77588 24.1781C4.79183 24.1407 4.81404 24.0899 4.84252 24.0276C4.89938 23.9032 4.98181 23.7318 5.09007 23.5288C5.30486 23.126 5.63016 22.5825 6.07083 22.0317C6.07083 22.0317 7.47243 19.5 12 19.5H18C22.5276 19.5 23.9292 22.0317 23.9292 22.0317C24.3698 22.5825 24.6951 23.126 24.9099 23.5288C25.0182 23.7318 25.1006 23.9032 25.1575 24.0276C25.186 24.0899 25.2082 24.1407 25.2241 24.1781L25.2434 24.224L25.2496 24.2391L25.2518 24.2445L25.2527 24.2468C25.2527 24.2468 25.2534 24.2486 24 24.75C22.7466 25.2514 22.7469 25.2522 22.7469 25.2522L22.7476 25.2541L22.7407 25.2377C22.7332 25.2201 22.7203 25.1904 22.7019 25.1501C22.665 25.0694 22.6068 24.9479 22.5276 24.7994C22.3674 24.499 22.1302 24.105 21.8208 23.7183C21.1735 22.9092 20.3949 22.35 19.5 22.35H10.5C9.6051 22.35 8.8265 22.9092 8.17917 23.7183C7.86984 24.105 7.63264 24.499 7.47243 24.7994C7.39319 24.9479 7.33499 25.0694 7.2981 25.1501C7.27971 25.1904 7.26676 25.2201 7.25928 25.2377L7.25221 25.2545L7.25312 25.2522Z" fill="currentColor"/>
</g>
</g>
</svg>
